<?xml version="1.0" encoding="UTF-8" standalone="no"?>
<!-- Created with Inkscape (http://www.inkscape.org/) -->

<svg
   version="1.1"
   id="svg2"
   width="1600"
   height="1600"
   viewBox="0 0 1600 1600"
   sodipodi:docname="bioinformatica.svg"
   inkscape:version="1.2.2 (b0a8486541, 2022-12-01)"
   xmlns:inkscape="http://www.inkscape.org/namespaces/inkscape"
   xmlns:sodipodi="http://sodipodi.sourceforge.net/DTD/sodipodi-0.dtd"
   xmlns="http://www.w3.org/2000/svg"
   xmlns:svg="http://www.w3.org/2000/svg">
  <defs
     id="defs6" />
  <sodipodi:namedview
     id="namedview4"
     pagecolor="#505050"
     bordercolor="#ffffff"
     borderopacity="1"
     inkscape:showpageshadow="0"
     inkscape:pageopacity="0"
     inkscape:pagecheckerboard="1"
     inkscape:deskcolor="#505050"
     showgrid="false"
     inkscape:zoom="0.641875"
     inkscape:cx="800.77897"
     inkscape:cy="800.77897"
     inkscape:window-width="966"
     inkscape:window-height="1379"
     inkscape:window-x="0"
     inkscape:window-y="0"
     inkscape:window-maximized="1"
     inkscape:current-layer="g10">
    <inkscape:page
       x="0"
       y="0"
       id="page8"
       width="1600"
       height="1600" />
  </sodipodi:namedview>
  <g
     id="g10"
     inkscape:groupmode="layer"
     inkscape:label="Page 1"
     transform="matrix(1.3333333,0,0,-1.3333333,0,1600)">
    <g
       id="g2252">
      <g
         id="g2203"
         transform="rotate(39.29152,796.10119,1193.3152)">
        <path
           d="m 454.31,706.899 -175.014,-41.049 -4.282,18.256 175.013,41.05 4.283,-18.257"
           style="fill:#97afbc;fill-opacity:1;fill-rule:nonzero;stroke:none;stroke-width:0.1"
           id="path64" />
        <path
           d="m 441.216,762.724 -175.014,-41.05 -4.282,18.256 175.014,41.05 4.282,-18.256"
           style="fill:#bae2e6;fill-opacity:1;fill-rule:nonzero;stroke:none;stroke-width:0.1"
           id="path66" />
        <path
           d="m 428.123,818.548 -175.015,-41.05 -4.281,18.256 175.013,41.05 4.283,-18.256"
           style="fill:#ff8080;fill-opacity:1;fill-rule:nonzero;stroke:none;stroke-width:0.1"
           id="path68" />
        <path
           d="m 380.673,968.303 -151.651,-35.57 -4.282,18.256 151.651,35.57 4.282,-18.256"
           style="fill:#97afbc;fill-opacity:1;fill-rule:nonzero;stroke:none;stroke-width:0.1"
           id="path70" />
        <path
           d="m 379.261,1026.87 -175.013,-41.053 -4.283,18.253 175.014,41.05 4.282,-18.25"
           style="fill:#ff8080;fill-opacity:1;fill-rule:nonzero;stroke:none;stroke-width:0.1"
           id="path72" />
        <path
           d="m 321.516,538.391 151.65,35.57 4.282,-18.257 -151.651,-35.569 -4.281,18.256"
           style="fill:#bae2e6;fill-opacity:1;fill-rule:nonzero;stroke:none;stroke-width:0.1"
           id="path74" />
        <path
           d="m 322.928,479.827 175.013,41.049 4.282,-18.256 -175.014,-41.05 -4.281,18.257"
           style="fill:#ff8080;fill-opacity:1;fill-rule:nonzero;stroke:none;stroke-width:0.1"
           id="path76" />
        <path
           d="m 281.67,655.878 c 24.351,-27.401 55.79,-39.767 86.194,-51.726 21.582,-8.488 41.967,-16.506 59.416,-29.495 32.556,-24.234 58.257,-60.494 69.683,-92.866 l 28.732,6.739 c -12.905,38.851 -42.754,81.314 -80.875,109.692 -20.592,15.326 -43.779,24.448 -66.203,33.267 -28.441,11.186 -55.305,21.752 -74.988,43.902 -11.156,12.555 -19.846,26.901 -25.825,42.636 -12.046,31.704 -11.291,66.249 2.069,94.778 5.025,10.73 13.715,23.633 25.13,37.315 5.403,6.476 11.237,12.999 16.877,19.307 16.386,18.32 33.329,37.263 45.138,60.502 22.215,43.72 29.598,98.121 22.736,139.511 l -28.665,-6.72 c 5.277,-34.93 -1.172,-81.921 -20.259,-119.484 -10.072,-19.82 -25.02,-36.534 -40.844,-54.226 -5.807,-6.493 -11.813,-13.207 -17.54,-20.072 -13.192,-15.814 -23.008,-30.508 -29.174,-43.674 -16.713,-35.687 -17.78,-78.577 -2.928,-117.671 7.252,-19.084 17.791,-36.484 31.326,-51.715"
           style="fill:#ff5555;fill-opacity:1;fill-rule:nonzero;stroke:none;stroke-width:0.1"
           id="path78" />
        <path
           d="m 325.654,870.307 c 7.855,-3.141 15.979,-6.388 23.696,-9.786 16.308,-7.178 29.828,-14.873 39.101,-22.249 24.652,-19.613 40.688,-50.22 43.995,-83.972 1.642,-16.755 0.237,-33.467 -4.173,-49.674 -7.782,-28.591 -27.147,-49.999 -47.647,-72.664 -16.165,-17.872 -32.878,-36.351 -44.507,-59.236 -21.528,-42.369 -29.383,-93.675 -23.667,-134.212 l 28.731,6.739 c -4.159,34.077 2.738,77.982 21.124,114.165 9.854,19.393 24.548,35.638 40.105,52.838 21.916,24.23 44.578,49.285 54.206,84.656 5.351,19.661 7.054,39.932 5.064,60.252 -4.079,41.62 -24.106,79.562 -54.944,104.096 -11.377,9.051 -26.702,17.848 -45.552,26.147 -8.179,3.601 -16.542,6.944 -24.629,10.176 -22.043,8.813 -42.864,17.137 -60.7,30.414 -33.798,25.157 -60.471,64.381 -71.274,98.013 l -28.666,-6.72 c 12.26,-40.132 43.062,-85.575 82.399,-114.857 20.913,-15.567 44.514,-25.001 67.338,-34.126"
           style="fill:#467fa3;fill-opacity:1;fill-rule:nonzero;stroke:none;stroke-width:0.1"
           id="path80" />
      </g>
      <g
         id="g2222"
         transform="translate(-580.4604,-164.86125)">
        <path
           d="m 833.992,844.651 -23.052,-1.549 -3.737,55.472 23.051,1.549 3.738,-55.472"
           style="fill:#97afbc;fill-opacity:1;fill-rule:nonzero;stroke:none;stroke-width:0.1"
           id="path22" />
        <path
           d="m 826.547,597.91 24.804,-0.988 -2.365,-59.687 -24.807,0.984 2.368,59.691"
           style="fill:#97afbc;fill-opacity:1;fill-rule:nonzero;stroke:none;stroke-width:0.1"
           id="path24" />
        <path
           d="m 737.108,644.162 9.989,-14.687 -35.335,-24.027 -9.992,14.682 35.338,24.032"
           style="fill:#97afbc;fill-opacity:1;fill-rule:nonzero;stroke:none;stroke-width:0.1"
           id="path26" />
        <path
           d="m 932.415,606.614 11.82,9.805 23.603,-28.445 -11.823,-9.81 -23.6,28.45"
           style="fill:#bae2e6;fill-opacity:1;fill-rule:nonzero;stroke:none;stroke-width:0.1"
           id="path28" />
        <path
           d="m 930.311,819.291 -10.205,14.537 34.969,24.56 10.205,-14.537 -34.969,-24.56"
           style="fill:#ffffff;fill-opacity:1;fill-rule:nonzero;stroke:none;stroke-width:0.1"
           id="path30" />
        <path
           d="m 985.698,713.511 -1.578,21.931 52.68,3.896 1.58,-21.931 -52.682,-3.896"
           style="fill:#97afbc;fill-opacity:1;fill-rule:nonzero;stroke:none;stroke-width:0.1"
           id="path32" />
        <path
           d="m 670.45,819.955 c 12.956,-4.691 18.248,-22.88 11.825,-40.62 -6.419,-17.742 -22.126,-28.316 -35.086,-23.629 -12.953,4.688 -18.251,22.875 -11.828,40.614 6.423,17.739 22.132,28.326 35.089,23.635"
           style="fill:#8dd35f;fill-opacity:1;fill-rule:nonzero;stroke:none;stroke-width:0.1"
           id="path34" />
        <path
           d="m 728.525,770.664 -7.134,-19.706 -47.409,17.163 7.13,19.71 47.413,-17.167"
           style="fill:#467fa3;fill-opacity:1;fill-rule:nonzero;stroke:none;stroke-width:0.1"
           id="path36" />
        <path
           d="m 855.082,923.9 c 1.02,-15.156 -14.977,-28.582 -35.733,-29.98 -20.762,-1.395 -38.414,9.755 -39.442,24.915 -1.019,15.161 14.981,28.579 35.741,29.981 20.758,1.399 38.415,-9.755 39.434,-24.916"
           style="fill:#467fa3;fill-opacity:1;fill-rule:nonzero;stroke:none;stroke-width:0.1"
           id="path38" />
        <path
           d="m 794.932,515.666 c 0.642,16.314 19.276,28.817 41.619,27.937 22.336,-0.889 39.914,-14.83 39.268,-31.143 -0.646,-16.306 -19.276,-28.817 -41.612,-27.928 -22.334,0.881 -39.918,14.824 -39.275,31.134"
           style="fill:#8dd35f;fill-opacity:1;fill-rule:nonzero;stroke:none;stroke-width:0.1"
           id="path40" />
        <path
           d="m 676.356,627.356 c 9.659,6.569 24.776,1.176 33.772,-12.048 8.991,-13.229 8.457,-29.269 -1.205,-35.835 -9.654,-6.566 -24.773,-1.171 -33.764,12.049 -8.996,13.225 -8.457,29.269 1.197,35.834"
           style="fill:#bae2e6;fill-opacity:1;fill-rule:nonzero;stroke:none;stroke-width:0.1"
           id="path42" />
        <path
           d="m 951.88,555.686 c -6.449,7.775 -3.048,21.238 7.599,30.07 10.645,8.828 24.507,9.692 30.952,1.914 6.452,-7.778 3.048,-21.238 -7.597,-30.066 -10.647,-8.833 -24.506,-9.693 -30.954,-1.918"
           style="fill:#467fa3;fill-opacity:1;fill-rule:nonzero;stroke:none;stroke-width:0.1"
           id="path44" />
        <path
           d="m 990.802,837.006 c -9.559,-6.712 -24.757,-1.543 -33.946,11.543 -9.193,13.089 -8.895,29.138 0.664,35.85 9.558,6.711 24.756,1.542 33.945,-11.543 9.195,-13.089 8.895,-29.139 -0.663,-35.85"
           style="fill:#8dd35f;fill-opacity:1;fill-rule:nonzero;stroke:none;stroke-width:0.1"
           id="path46" />
        <path
           d="m 1061.08,693.928 c -14.4,-1.063 -27.22,14.076 -28.64,33.829 -1.42,19.74 9.1,36.612 23.49,37.679 14.4,1.066 27.22,-14.081 28.64,-33.821 1.42,-19.749 -9.1,-36.625 -23.49,-37.687"
           style="fill:#bae2e6;fill-opacity:1;fill-rule:nonzero;stroke:none;stroke-width:0.1"
           id="path48" />
        <path
           d="m 904.434,848.569 c -72.592,29.52 -155.305,-5.246 -184.745,-77.648 -29.446,-72.403 5.533,-155.028 78.124,-184.548 72.589,-29.513 155.302,5.254 184.746,77.653 29.441,72.406 -5.532,155.028 -78.125,184.543"
           style="fill:#467fa3;fill-opacity:1;fill-rule:nonzero;stroke:none;stroke-width:0.1"
           id="path50" />
        <path
           d="m 840.447,753.37 c -12.915,-16.752 -36.962,-19.863 -53.714,-6.948 -16.748,12.911 -19.858,36.958 -6.943,53.71 12.911,16.748 36.958,19.858 53.705,6.947 16.753,-12.915 19.863,-36.961 6.952,-53.709"
           style="fill:#ffffff;fill-opacity:1;fill-rule:nonzero;stroke:none;stroke-width:0.1"
           id="path52" />
        <path
           d="m 819.347,668.795 c -7.901,-10.247 -22.615,-12.15 -32.866,-4.247 -10.247,7.899 -12.15,22.613 -4.251,32.86 7.901,10.247 22.618,12.154 32.865,4.255 10.251,-7.903 12.151,-22.621 4.252,-32.868"
           style="fill:#ffffff;fill-opacity:1;fill-rule:nonzero;stroke:none;stroke-width:0.1"
           id="path54" />
      </g>
    </g>
  </g>
</svg>
